<svg width="40" height="40" viewBox="0 0 40 40" fill="none" xmlns="http://www.w3.org/2000/svg">
<circle cx="20" cy="20" r="20" fill="#D9D9D9" fill-opacity="0.45"/>
<path d="M6.66663 13.3232C6.66663 13.9912 7.13538 14.4482 7.85022 14.4482H12.1276V26.1084C12.1276 26.7178 12.526 27.1162 13.1354 27.1162H24.819V31.4404C24.819 32.167 25.3229 32.6475 25.9908 32.6475C26.6705 32.6475 27.1744 32.167 27.1744 31.4404V27.1162H31.4518C32.1666 27.1162 32.6354 26.6592 32.6354 26.0029C32.6354 25.335 32.1666 24.8779 31.4518 24.8779H27.1744V13.2178C27.1744 12.6084 26.776 12.1982 26.1666 12.1982H14.4948V7.88574C14.4948 7.15918 13.9908 6.66699 13.3112 6.66699C12.6432 6.66699 12.1276 7.15918 12.1276 7.88574V12.1982H7.85022C7.13538 12.1982 6.66663 12.667 6.66663 13.3232ZM14.8229 24.8779C14.5885 24.8779 14.4948 24.7842 14.4948 24.5381V14.4482H24.4791C24.7135 14.4482 24.819 14.542 24.819 14.7764V24.8779H14.8229Z" fill="white" fill-opacity="0.65"/>
</svg>
