<svg width="12" height="12" viewBox="0 0 12 12" fill="none" xmlns="http://www.w3.org/2000/svg">
<path d="M6.00398 9.12139C9.09647 9.12139 11.1757 6.62781 11.1757 5.85563C11.1757 5.08344 9.08894 2.59363 6.00398 2.59363C2.95668 2.59363 0.824707 5.08344 0.824707 5.85563C0.824707 6.62781 2.94915 9.12139 6.00398 9.12139ZM6.00398 8.38311C3.6008 8.38311 1.69859 6.38297 1.69859 5.85563C1.69859 5.41492 3.6008 3.33191 6.00398 3.33191C8.39586 3.33191 10.3018 5.41492 10.3018 5.85563C10.3018 6.38297 8.39586 8.38311 6.00398 8.38311ZM6.00398 7.87837C7.12646 7.87837 8.02672 6.95551 8.02672 5.85563C8.02672 4.72937 7.12646 3.83665 6.00398 3.83665C4.87395 3.83665 3.96994 4.72937 3.9737 5.85563C3.98124 6.95551 4.87395 7.87837 6.00398 7.87837ZM6.00021 6.50727C5.6386 6.50727 5.3448 6.21347 5.3448 5.85563C5.3448 5.49779 5.6386 5.20398 6.00021 5.20398C6.36182 5.20398 6.65562 5.49779 6.65562 5.85563C6.65562 6.21347 6.36182 6.50727 6.00021 6.50727Z" fill="white"/>
</svg>
