<svg width="20" height="20" viewBox="0 0 20 20" fill="none" xmlns="http://www.w3.org/2000/svg">
<circle cx="10" cy="10" r="10" fill="#7D7878" fill-opacity="0.5"/>
<path d="M14.3751 5.63194C14.1042 5.36111 13.6667 5.36111 13.3959 5.63194L10.0001 9.02083L6.60423 5.625C6.33339 5.35417 5.89589 5.35417 5.62506 5.625C5.35423 5.89583 5.35423 6.33333 5.62506 6.60417L9.0209 10L5.62506 13.3958C5.35423 13.6667 5.35423 14.1042 5.62506 14.375C5.89589 14.6458 6.33339 14.6458 6.60423 14.375L10.0001 10.9792L13.3959 14.375C13.6667 14.6458 14.1042 14.6458 14.3751 14.375C14.6459 14.1042 14.6459 13.6667 14.3751 13.3958L10.9792 10L14.3751 6.60417C14.639 6.34028 14.639 5.89583 14.3751 5.63194Z" fill="white"/>
</svg>
