<svg width="28" height="29" viewBox="0 0 28 29" fill="none" xmlns="http://www.w3.org/2000/svg">
<path d="M21.3498 7.16175C20.8948 6.70675 20.1598 6.70675 19.7048 7.16175L13.9998 12.8551L8.29484 7.15009C7.83984 6.69509 7.10484 6.69509 6.64984 7.15009C6.19484 7.60509 6.19484 8.34009 6.64984 8.79509L12.3548 14.5001L6.64984 20.2051C6.19484 20.6601 6.19484 21.3951 6.64984 21.8501C7.10484 22.3051 7.83984 22.3051 8.29484 21.8501L13.9998 16.1451L19.7048 21.8501C20.1598 22.3051 20.8948 22.3051 21.3498 21.8501C21.8048 21.3951 21.8048 20.6601 21.3498 20.2051L15.6448 14.5001L21.3498 8.79509C21.7932 8.35176 21.7932 7.60509 21.3498 7.16175Z" fill="#7D7878"/>
</svg>
