<svg width="38" height="29" viewBox="0 0 38 29" fill="none" xmlns="http://www.w3.org/2000/svg">
<path fill-rule="evenodd" clip-rule="evenodd" d="M14.4792 2.47795C16.5026 2.64071 18.0992 3.06357 19.7181 3.86533C23.1691 5.57455 24.8756 8.55243 24.07 11.4595C23.5592 13.3027 21.9599 15.0421 19.7718 16.1346C17.7855 17.1262 15.8203 17.5635 13.3444 17.5649C11.0521 17.5661 9.06491 17.1419 7.17453 16.2475C2.10974 13.8515 0.915626 9.01119 4.53859 5.56344C6.84646 3.36721 10.6927 2.17339 14.4792 2.47795ZM8.33714 8.425C9.10343 7.08384 10.7438 6.13681 12.6228 5.95062C13.5161 5.86212 14.4818 5.95147 15.3498 6.203C18.0397 6.98254 19.4523 9.30676 18.4859 11.363C18.0737 12.2401 17.3224 12.9448 16.2491 13.4609C15.2577 13.9376 14.7265 14.0444 13.3465 14.0444C11.9286 14.0444 11.4167 13.9362 10.349 13.4106C9.61797 13.0506 8.81479 12.3598 8.43583 11.765C7.80107 10.7687 7.76164 9.43228 8.33714 8.425Z" fill="#FFDD94"/>
<path fill-rule="evenodd" clip-rule="evenodd" d="M8.33714 8.425C9.10343 7.08384 10.7438 6.13681 12.6228 5.95062C13.5161 5.86212 14.4818 5.95147 15.3498 6.203C18.0397 6.98254 19.4523 9.30676 18.4859 11.363C18.0737 12.2401 17.3224 12.9448 16.2491 13.4609C15.2577 13.9376 14.7265 14.0444 13.3465 14.0444C11.9286 14.0444 11.4167 13.9362 10.349 13.4106C9.61797 13.0506 8.81479 12.3598 8.43583 11.765C7.80107 10.7687 7.76164 9.43228 8.33714 8.425ZM17.1713 9.23915C16.8281 8.5273 15.7732 7.79485 14.7259 7.54118C14.166 7.40554 12.9083 7.34685 12.4262 7.43386C11.9096 7.5271 11.2064 7.77686 10.7724 8.02125C10.2777 8.29976 9.71857 8.86379 9.53443 9.27001C9.33019 9.72042 9.33465 10.3409 9.54526 10.7716C9.91673 11.5315 10.9414 12.233 12.0722 12.5016C12.7851 12.671 14.0359 12.6553 14.7482 12.4679C15.8191 12.1864 16.771 11.5295 17.1502 10.8104C17.3586 10.4153 17.3689 9.64898 17.1713 9.23915Z" fill="#FFDD94"/>
<path d="M3.54951 15.4727C5.37674 17.2171 7.78401 18.3324 10.904 18.8801C11.5103 18.9866 12.7675 19.0007 23.665 19.0234L35.7533 19.0486V22.7986V26.5487H35.01H34.2666V24.5739V22.5991L34.0612 22.3792C33.7756 22.0734 33.3559 22.068 33.0576 22.3663L32.8507 22.5732V24.561V26.5487H31.364H29.8773V25.4105V24.2723L29.6703 24.0654C29.5174 23.9124 29.3962 23.8585 29.2055 23.8585C28.5722 23.8585 28.4614 24.1004 28.4614 25.4832V26.5487H27.0101H25.5587V25.6018C25.5587 24.4672 25.525 24.2689 25.2926 24.0364C24.9532 23.697 24.3062 23.8451 24.1481 24.2984C24.1063 24.4185 24.072 24.9739 24.072 25.5327V26.5487H22.6207H21.1694V24.6772C21.1694 23.6479 21.1395 22.7271 21.1029 22.6309C20.9122 22.1292 20.3571 22.0016 19.9493 22.3659L19.7181 22.5723L19.6963 24.5605L19.6745 26.5487H18.2981H16.9217V25.5327C16.9217 24.9739 16.8874 24.4185 16.8456 24.2984C16.6876 23.8451 16.0406 23.697 15.7011 24.0364C15.4687 24.2689 15.435 24.4672 15.435 25.6018V26.5487H13.9837H12.5323V25.4832C12.5323 24.3576 12.471 24.0859 12.1823 23.9314C11.9602 23.8125 11.575 23.8468 11.3762 24.0032C11.1203 24.2046 11.0465 24.5402 11.0461 25.5045C11.0456 26.4639 11.1086 26.4062 10.2538 26.2287C7.53431 25.6638 5.09993 24.2877 3.77563 22.5666C3.37393 22.0447 2.89125 21.1299 2.68276 20.4957C2.52552 20.0175 2.51894 19.8994 2.49515 17.1386L2.47051 14.2771L2.7486 14.6254C2.90159 14.8169 3.26194 15.1982 3.54951 15.4727Z" fill="#FFDD94"/>
<path fill-rule="evenodd" clip-rule="evenodd" d="M11.6474 1.0391C10.7601 1.14947 9.83 1.31916 9.16955 1.49127C5.4297 2.46584 2.48099 4.75778 1.41679 7.51733C0.980333 8.64921 0.985785 8.55264 1.00787 14.7303L1.02805 20.3541L1.23102 20.9558C1.81388 22.6835 3.01889 24.2498 4.67657 25.4346C6.03019 26.4021 8.03215 27.2484 9.87871 27.6339C11.6566 28.005 11.4551 28 24.5557 28H36.7561L36.9627 27.7688L37.1692 27.5376V22.8049C37.1692 18.1444 37.167 18.0695 37.0245 17.8882C36.9447 17.7869 36.7616 17.6713 36.6174 17.6313C36.4483 17.5843 34.4606 17.5583 31.0277 17.5581L25.7003 17.5576V13.5316C25.7003 10.2629 25.6802 9.38718 25.5933 8.87674C24.9209 4.92734 20.7698 1.76773 15.3669 1.09283C14.6333 1.00115 12.2311 0.966461 11.6474 1.0391ZM19.7181 3.86533C18.0992 3.06357 16.5026 2.64071 14.4792 2.47795C10.6927 2.17339 6.84646 3.36721 4.53859 5.56344C0.915626 9.01119 2.10974 13.8515 7.17453 16.2475C9.06491 17.1419 11.0521 17.5661 13.3444 17.5649C15.8203 17.5635 17.7855 17.1262 19.7718 16.1346C21.9599 15.0421 23.5592 13.3027 24.07 11.4595C24.8756 8.55243 23.1691 5.57455 19.7181 3.86533ZM10.904 18.8801C7.78401 18.3324 5.37674 17.2171 3.54951 15.4727C3.26194 15.1982 2.90159 14.8169 2.7486 14.6254L2.47051 14.2771L2.49515 17.1386C2.51894 19.8994 2.52552 20.0175 2.68276 20.4957C2.89125 21.1299 3.37393 22.0447 3.77563 22.5666C5.09993 24.2877 7.53431 25.6638 10.2538 26.2287C11.1086 26.4062 11.0456 26.4639 11.0461 25.5045C11.0465 24.5402 11.1203 24.2046 11.3762 24.0032C11.575 23.8468 11.9602 23.8125 12.1823 23.9314C12.471 24.0859 12.5323 24.3576 12.5323 25.4832V26.5487H13.9837H15.435V25.6018C15.435 24.4672 15.4687 24.2689 15.7011 24.0364C16.0406 23.697 16.6876 23.8451 16.8456 24.2984C16.8874 24.4185 16.9217 24.9739 16.9217 25.5327V26.5487H18.2981H19.6745L19.6963 24.5605L19.7181 22.5723L19.9493 22.3659C20.3571 22.0016 20.9122 22.1292 21.1029 22.6309C21.1395 22.7271 21.1694 23.6479 21.1694 24.6772V26.5487H22.6207H24.072V25.5327C24.072 24.9739 24.1063 24.4185 24.1481 24.2984C24.3062 23.8451 24.9532 23.697 25.2926 24.0364C25.525 24.2689 25.5587 24.4672 25.5587 25.6018V26.5487H27.0101H28.4614V25.4832C28.4614 24.1004 28.5722 23.8585 29.2055 23.8585C29.3962 23.8585 29.5174 23.9124 29.6703 24.0654L29.8773 24.2723V25.4105V26.5487H31.364H32.8507V24.561V22.5732L33.0576 22.3663C33.3559 22.068 33.7756 22.0734 34.0612 22.3792L34.2666 22.5991V24.5739V26.5487H35.01H35.7533V22.7986V19.0486L23.665 19.0234C12.7675 19.0007 11.5103 18.9866 10.904 18.8801ZM24.2844 17.5576V15.9293C24.2844 15.0338 24.2764 14.304 24.2667 14.3076C24.257 14.3112 23.8349 14.7348 23.3287 15.2489C22.377 16.2153 21.7073 16.7281 20.7092 17.2547L20.1429 17.5535L22.2137 17.5556L24.2844 17.5576Z" fill="#FFDD94"/>
<path d="M24.2844 15.9293V17.5576L22.2137 17.5556L20.1429 17.5535L20.7092 17.2547C21.7073 16.7281 22.377 16.2153 23.3287 15.2489C23.8349 14.7348 24.257 14.3112 24.2667 14.3076C24.2764 14.304 24.2844 15.0338 24.2844 15.9293Z" fill="#FFDD94"/>
<path fill-rule="evenodd" clip-rule="evenodd" d="M14.4792 2.47795C16.5026 2.64071 18.0992 3.06357 19.7181 3.86533C23.1691 5.57455 24.8756 8.55243 24.07 11.4595C23.5592 13.3027 21.9599 15.0421 19.7718 16.1346C17.7855 17.1262 15.8203 17.5635 13.3444 17.5649C11.0521 17.5661 9.06491 17.1419 7.17453 16.2475C2.10974 13.8515 0.915626 9.01119 4.53859 5.56344C6.84646 3.36721 10.6927 2.17339 14.4792 2.47795ZM8.33714 8.425C9.10343 7.08384 10.7438 6.13681 12.6228 5.95062C13.5161 5.86212 14.4818 5.95147 15.3498 6.203C18.0397 6.98254 19.4523 9.30676 18.4859 11.363C18.0737 12.2401 17.3224 12.9448 16.2491 13.4609C15.2577 13.9376 14.7265 14.0444 13.3465 14.0444C11.9286 14.0444 11.4167 13.9362 10.349 13.4106C9.61797 13.0506 8.81479 12.3598 8.43583 11.765C7.80107 10.7687 7.76164 9.43228 8.33714 8.425Z" stroke="black"/>
<path fill-rule="evenodd" clip-rule="evenodd" d="M8.33714 8.425C9.10343 7.08384 10.7438 6.13681 12.6228 5.95062C13.5161 5.86212 14.4818 5.95147 15.3498 6.203C18.0397 6.98254 19.4523 9.30676 18.4859 11.363C18.0737 12.2401 17.3224 12.9448 16.2491 13.4609C15.2577 13.9376 14.7265 14.0444 13.3465 14.0444C11.9286 14.0444 11.4167 13.9362 10.349 13.4106C9.61797 13.0506 8.81479 12.3598 8.43583 11.765C7.80107 10.7687 7.76164 9.43228 8.33714 8.425ZM17.1713 9.23915C16.8281 8.5273 15.7732 7.79485 14.7259 7.54118C14.166 7.40554 12.9083 7.34685 12.4262 7.43386C11.9096 7.5271 11.2064 7.77686 10.7724 8.02125C10.2777 8.29976 9.71857 8.86379 9.53443 9.27001C9.33019 9.72042 9.33465 10.3409 9.54526 10.7716C9.91673 11.5315 10.9414 12.233 12.0722 12.5016C12.7851 12.671 14.0359 12.6553 14.7482 12.4679C15.8191 12.1864 16.771 11.5295 17.1502 10.8104C17.3586 10.4153 17.3689 9.64898 17.1713 9.23915Z" stroke="black"/>
<path d="M3.54951 15.4727C5.37674 17.2171 7.78401 18.3324 10.904 18.8801C11.5103 18.9866 12.7675 19.0007 23.665 19.0234L35.7533 19.0486V22.7986V26.5487H35.01H34.2666V24.5739V22.5991L34.0612 22.3792C33.7756 22.0734 33.3559 22.068 33.0576 22.3663L32.8507 22.5732V24.561V26.5487H31.364H29.8773V25.4105V24.2723L29.6703 24.0654C29.5174 23.9124 29.3962 23.8585 29.2055 23.8585C28.5722 23.8585 28.4614 24.1004 28.4614 25.4832V26.5487H27.0101H25.5587V25.6018C25.5587 24.4672 25.525 24.2689 25.2926 24.0364C24.9532 23.697 24.3062 23.8451 24.1481 24.2984C24.1063 24.4185 24.072 24.9739 24.072 25.5327V26.5487H22.6207H21.1694V24.6772C21.1694 23.6479 21.1395 22.7271 21.1029 22.6309C20.9122 22.1292 20.3571 22.0016 19.9493 22.3659L19.7181 22.5723L19.6963 24.5605L19.6745 26.5487H18.2981H16.9217V25.5327C16.9217 24.9739 16.8874 24.4185 16.8456 24.2984C16.6876 23.8451 16.0406 23.697 15.7011 24.0364C15.4687 24.2689 15.435 24.4672 15.435 25.6018V26.5487H13.9837H12.5323V25.4832C12.5323 24.3576 12.471 24.0859 12.1823 23.9314C11.9602 23.8125 11.575 23.8468 11.3762 24.0032C11.1203 24.2046 11.0465 24.5402 11.0461 25.5045C11.0456 26.4639 11.1086 26.4062 10.2538 26.2287C7.53431 25.6638 5.09993 24.2877 3.77563 22.5666C3.37393 22.0447 2.89125 21.1299 2.68276 20.4957C2.52552 20.0175 2.51894 19.8994 2.49515 17.1386L2.47051 14.2771L2.7486 14.6254C2.90159 14.8169 3.26194 15.1982 3.54951 15.4727Z" stroke="black"/>
<path fill-rule="evenodd" clip-rule="evenodd" d="M11.6474 1.0391C10.7601 1.14947 9.83 1.31916 9.16955 1.49127C5.4297 2.46584 2.48099 4.75778 1.41679 7.51733C0.980333 8.64921 0.985785 8.55264 1.00787 14.7303L1.02805 20.3541L1.23102 20.9558C1.81388 22.6835 3.01889 24.2498 4.67657 25.4346C6.03019 26.4021 8.03215 27.2484 9.87871 27.6339C11.6566 28.005 11.4551 28 24.5557 28H36.7561L36.9627 27.7688L37.1692 27.5376V22.8049C37.1692 18.1444 37.167 18.0695 37.0245 17.8882C36.9447 17.7869 36.7616 17.6713 36.6174 17.6313C36.4483 17.5843 34.4606 17.5583 31.0277 17.5581L25.7003 17.5576V13.5316C25.7003 10.2629 25.6802 9.38718 25.5933 8.87674C24.9209 4.92734 20.7698 1.76773 15.3669 1.09283C14.6333 1.00115 12.2311 0.966461 11.6474 1.0391ZM19.7181 3.86533C18.0992 3.06357 16.5026 2.64071 14.4792 2.47795C10.6927 2.17339 6.84646 3.36721 4.53859 5.56344C0.915626 9.01119 2.10974 13.8515 7.17453 16.2475C9.06491 17.1419 11.0521 17.5661 13.3444 17.5649C15.8203 17.5635 17.7855 17.1262 19.7718 16.1346C21.9599 15.0421 23.5592 13.3027 24.07 11.4595C24.8756 8.55243 23.1691 5.57455 19.7181 3.86533ZM10.904 18.8801C7.78401 18.3324 5.37674 17.2171 3.54951 15.4727C3.26194 15.1982 2.90159 14.8169 2.7486 14.6254L2.47051 14.2771L2.49515 17.1386C2.51894 19.8994 2.52552 20.0175 2.68276 20.4957C2.89125 21.1299 3.37393 22.0447 3.77563 22.5666C5.09993 24.2877 7.53431 25.6638 10.2538 26.2287C11.1086 26.4062 11.0456 26.4639 11.0461 25.5045C11.0465 24.5402 11.1203 24.2046 11.3762 24.0032C11.575 23.8468 11.9602 23.8125 12.1823 23.9314C12.471 24.0859 12.5323 24.3576 12.5323 25.4832V26.5487H13.9837H15.435V25.6018C15.435 24.4672 15.4687 24.2689 15.7011 24.0364C16.0406 23.697 16.6876 23.8451 16.8456 24.2984C16.8874 24.4185 16.9217 24.9739 16.9217 25.5327V26.5487H18.2981H19.6745L19.6963 24.5605L19.7181 22.5723L19.9493 22.3659C20.3571 22.0016 20.9122 22.1292 21.1029 22.6309C21.1395 22.7271 21.1694 23.6479 21.1694 24.6772V26.5487H22.6207H24.072V25.5327C24.072 24.9739 24.1063 24.4185 24.1481 24.2984C24.3062 23.8451 24.9532 23.697 25.2926 24.0364C25.525 24.2689 25.5587 24.4672 25.5587 25.6018V26.5487H27.0101H28.4614V25.4832C28.4614 24.1004 28.5722 23.8585 29.2055 23.8585C29.3962 23.8585 29.5174 23.9124 29.6703 24.0654L29.8773 24.2723V25.4105V26.5487H31.364H32.8507V24.561V22.5732L33.0576 22.3663C33.3559 22.068 33.7756 22.0734 34.0612 22.3792L34.2666 22.5991V24.5739V26.5487H35.01H35.7533V22.7986V19.0486L23.665 19.0234C12.7675 19.0007 11.5103 18.9866 10.904 18.8801ZM24.2844 17.5576V15.9293C24.2844 15.0338 24.2764 14.304 24.2667 14.3076C24.257 14.3112 23.8349 14.7348 23.3287 15.2489C22.377 16.2153 21.7073 16.7281 20.7092 17.2547L20.1429 17.5535L22.2137 17.5556L24.2844 17.5576Z" stroke="black"/>
<path d="M24.2844 15.9293V17.5576L22.2137 17.5556L20.1429 17.5535L20.7092 17.2547C21.7073 16.7281 22.377 16.2153 23.3287 15.2489C23.8349 14.7348 24.257 14.3112 24.2667 14.3076C24.2764 14.304 24.2844 15.0338 24.2844 15.9293Z" stroke="black"/>
</svg>
