<svg width="32" height="24" viewBox="0 0 32 24" fill="none" xmlns="http://www.w3.org/2000/svg">
<path fill-rule="evenodd" clip-rule="evenodd" d="M12.1801 2.22586C13.8584 2.36086 15.1827 2.7116 16.5254 3.3766C19.3878 4.79429 20.8032 7.26424 20.135 9.67548C19.7114 11.2043 18.3849 12.647 16.5699 13.5532C14.9225 14.3756 13.2925 14.7383 11.2389 14.7395C9.33754 14.7405 7.68932 14.3886 6.12137 13.6468C1.92045 11.6595 0.930018 7.64475 3.93503 4.78507C5.84926 2.96345 9.03947 1.97325 12.1801 2.22586ZM7.08567 7.15855C7.72126 6.04615 9.08181 5.26065 10.6404 5.10621C11.3812 5.03281 12.1823 5.10692 12.9022 5.31555C15.1333 5.96212 16.3049 7.88991 15.5034 9.59544C15.1615 10.3229 14.5383 10.9074 13.6481 11.3355C12.8258 11.7309 12.3852 11.8195 11.2406 11.8195C10.0646 11.8195 9.63995 11.7297 8.75439 11.2938C8.14804 10.9952 7.48186 10.4222 7.16753 9.92885C6.64104 9.10248 6.60833 7.99402 7.08567 7.15855Z" fill="#6EC6CA"/>
<path fill-rule="evenodd" clip-rule="evenodd" d="M7.08567 7.15855C7.72126 6.04615 9.08181 5.26065 10.6404 5.10621C11.3812 5.03281 12.1823 5.10692 12.9022 5.31555C15.1333 5.96212 16.3049 7.88991 15.5034 9.59544C15.1615 10.3229 14.5383 10.9074 13.6481 11.3355C12.8258 11.7309 12.3852 11.8195 11.2406 11.8195C10.0646 11.8195 9.63995 11.7297 8.75439 11.2938C8.14804 10.9952 7.48186 10.4222 7.16753 9.92885C6.64104 9.10248 6.60833 7.99402 7.08567 7.15855ZM14.413 7.83383C14.1284 7.2434 13.2534 6.63588 12.3848 6.42548C11.9203 6.31297 10.8772 6.26429 10.4772 6.33646C10.0488 6.4138 9.46555 6.62096 9.10553 6.82366C8.69525 7.05467 8.23148 7.5225 8.07875 7.85943C7.90934 8.23301 7.91304 8.74764 8.08773 9.10489C8.39584 9.7352 9.2457 10.3171 10.1836 10.5398C10.775 10.6804 11.8124 10.6673 12.4033 10.5119C13.2915 10.2784 14.081 9.73355 14.3955 9.13707C14.5684 8.80935 14.5769 8.17376 14.413 7.83383Z" fill="#6EC6CA"/>
<path d="M3.11465 13.0042C4.63022 14.451 6.62689 15.376 9.21475 15.8304C9.71763 15.9187 10.7603 15.9304 19.7991 15.9492L29.8256 15.9701V19.0805V22.191H29.209H28.5925V20.553V18.9151L28.4221 18.7327C28.1852 18.479 27.8371 18.4745 27.5897 18.7219L27.4181 18.8936V20.5423V22.191H26.1849H24.9518V21.2469V20.3029L24.7802 20.1312C24.6533 20.0043 24.5527 19.9596 24.3946 19.9596C23.8693 19.9596 23.7774 20.1603 23.7774 21.3072V22.191H22.5736H21.3699V21.4056C21.3699 20.4645 21.3419 20.3 21.1491 20.1072C20.8676 19.8256 20.3309 19.9485 20.1999 20.3245C20.1652 20.4241 20.1367 20.8848 20.1367 21.3483V22.191H18.933H17.7292V20.6387C17.7292 19.7849 17.7044 19.0212 17.6741 18.9414C17.5159 18.5253 17.0554 18.4195 16.7172 18.7216L16.5254 18.8928L16.5073 20.5419L16.4893 22.191H15.3476H14.206V21.3483C14.206 20.8848 14.1776 20.4241 14.1429 20.3245C14.0118 19.9485 13.4751 19.8256 13.1936 20.1072C13.0008 20.3 12.9729 20.4645 12.9729 21.4056V22.191H11.7691H10.5653V21.3072C10.5653 20.3736 10.5145 20.1483 10.2749 20.0201C10.0908 19.9215 9.77131 19.95 9.60636 20.0797C9.39414 20.2467 9.3329 20.5251 9.33255 21.3248C9.33214 22.1206 9.3844 22.0728 8.67541 21.9255C6.41978 21.457 4.40062 20.3156 3.3022 18.8881C2.96902 18.4552 2.56867 17.6964 2.39574 17.1704C2.26532 16.7738 2.25986 16.6758 2.24013 14.3859L2.21969 12.0125L2.45035 12.3013C2.57724 12.4602 2.87613 12.7764 3.11465 13.0042Z" fill="#6EC6CA"/>
<path fill-rule="evenodd" clip-rule="evenodd" d="M9.83132 1.03243C9.09538 1.12397 8.32391 1.26473 7.7761 1.40748C4.67414 2.21582 2.22838 4.11683 1.3457 6.40569C0.983688 7.34451 0.988209 7.26442 1.00653 12.3884L1.02327 17.0529L1.19162 17.552C1.67506 18.985 2.67454 20.2842 4.04948 21.2669C5.17221 22.0693 6.8327 22.7713 8.36431 23.0911C9.83895 23.3989 9.67183 23.3947 20.5379 23.3947H30.6573L30.8287 23.2029L31 23.0112V19.0858C31 15.2201 30.9982 15.158 30.8799 15.0076C30.8138 14.9237 30.6619 14.8278 30.5423 14.7945C30.4021 14.7556 28.7534 14.734 25.906 14.7338L21.4873 14.7335V11.3941C21.4873 8.68299 21.4706 7.95661 21.3985 7.53324C20.8408 4.25747 17.3977 1.63678 12.9164 1.077C12.3079 1.00095 10.3155 0.972181 9.83132 1.03243ZM16.5254 3.3766C15.1827 2.7116 13.8584 2.36086 12.1801 2.22586C9.03947 1.97325 5.84926 2.96345 3.93503 4.78507C0.930018 7.64475 1.92045 11.6595 6.12137 13.6468C7.68932 14.3886 9.33754 14.7405 11.2389 14.7395C13.2925 14.7383 14.9225 14.3756 16.5699 13.5532C18.3849 12.647 19.7114 11.2043 20.135 9.67548C20.8032 7.26424 19.3878 4.79429 16.5254 3.3766ZM9.21475 15.8304C6.62689 15.376 4.63022 14.451 3.11465 13.0042C2.87613 12.7764 2.57724 12.4602 2.45035 12.3013L2.21969 12.0125L2.24013 14.3859C2.25986 16.6758 2.26532 16.7738 2.39574 17.1704C2.56867 17.6964 2.96902 18.4552 3.3022 18.8881C4.40062 20.3156 6.41978 21.457 8.67541 21.9255C9.3844 22.0728 9.33214 22.1206 9.33255 21.3248C9.3329 20.5251 9.39414 20.2467 9.60636 20.0797C9.77131 19.95 10.0908 19.9215 10.2749 20.0201C10.5145 20.1483 10.5653 20.3736 10.5653 21.3072V22.191H11.7691H12.9729V21.4056C12.9729 20.4645 13.0008 20.3 13.1936 20.1072C13.4751 19.8256 14.0118 19.9485 14.1429 20.3245C14.1776 20.4241 14.206 20.8848 14.206 21.3483V22.191H15.3476H16.4893L16.5073 20.5419L16.5254 18.8928L16.7172 18.7216C17.0554 18.4195 17.5159 18.5253 17.6741 18.9414C17.7044 19.0212 17.7292 19.7849 17.7292 20.6387V22.191H18.933H20.1367V21.3483C20.1367 20.8848 20.1652 20.4241 20.1999 20.3245C20.3309 19.9485 20.8676 19.8256 21.1491 20.1072C21.3419 20.3 21.3699 20.4645 21.3699 21.4056V22.191H22.5736H23.7774V21.3072C23.7774 20.1603 23.8693 19.9596 24.3946 19.9596C24.5527 19.9596 24.6533 20.0043 24.7802 20.1312L24.9518 20.3029V21.2469V22.191H26.1849H27.4181V20.5423V18.8936L27.5897 18.7219C27.8371 18.4745 28.1852 18.479 28.4221 18.7327L28.5925 18.9151V20.553V22.191H29.209H29.8256V19.0805V15.9701L19.7991 15.9492C10.7603 15.9304 9.71763 15.9187 9.21475 15.8304ZM20.3129 14.7335V13.3829C20.3129 12.6401 20.3063 12.0348 20.2982 12.0378C20.2902 12.0408 19.94 12.3921 19.5202 12.8185C18.7309 13.6201 18.1754 14.0454 17.3475 14.4822L16.8778 14.7301L18.5953 14.7318L20.3129 14.7335Z" fill="#6EC6CA"/>
<path d="M20.3129 13.3829V14.7335L18.5953 14.7318L16.8778 14.7301L17.3475 14.4822C18.1754 14.0454 18.7309 13.6201 19.5202 12.8185C19.94 12.3921 20.2902 12.0408 20.2982 12.0378C20.3063 12.0348 20.3129 12.6401 20.3129 13.3829Z" fill="#6EC6CA"/>
<path fill-rule="evenodd" clip-rule="evenodd" d="M12.1801 2.22586C13.8584 2.36086 15.1827 2.7116 16.5254 3.3766C19.3878 4.79429 20.8032 7.26424 20.135 9.67548C19.7114 11.2043 18.3849 12.647 16.5699 13.5532C14.9225 14.3756 13.2925 14.7383 11.2389 14.7395C9.33754 14.7405 7.68932 14.3886 6.12137 13.6468C1.92045 11.6595 0.930018 7.64475 3.93503 4.78507C5.84926 2.96345 9.03947 1.97325 12.1801 2.22586ZM7.08567 7.15855C7.72126 6.04615 9.08181 5.26065 10.6404 5.10621C11.3812 5.03281 12.1823 5.10692 12.9022 5.31555C15.1333 5.96212 16.3049 7.88991 15.5034 9.59544C15.1615 10.3229 14.5383 10.9074 13.6481 11.3355C12.8258 11.7309 12.3852 11.8195 11.2406 11.8195C10.0646 11.8195 9.63995 11.7297 8.75439 11.2938C8.14804 10.9952 7.48186 10.4222 7.16753 9.92885C6.64104 9.10248 6.60833 7.99402 7.08567 7.15855Z" stroke="white" stroke-width="0.3"/>
<path fill-rule="evenodd" clip-rule="evenodd" d="M7.08567 7.15855C7.72126 6.04615 9.08181 5.26065 10.6404 5.10621C11.3812 5.03281 12.1823 5.10692 12.9022 5.31555C15.1333 5.96212 16.3049 7.88991 15.5034 9.59544C15.1615 10.3229 14.5383 10.9074 13.6481 11.3355C12.8258 11.7309 12.3852 11.8195 11.2406 11.8195C10.0646 11.8195 9.63995 11.7297 8.75439 11.2938C8.14804 10.9952 7.48186 10.4222 7.16753 9.92885C6.64104 9.10248 6.60833 7.99402 7.08567 7.15855ZM14.413 7.83383C14.1284 7.2434 13.2534 6.63588 12.3848 6.42548C11.9203 6.31297 10.8772 6.26429 10.4772 6.33646C10.0488 6.4138 9.46555 6.62096 9.10553 6.82366C8.69525 7.05467 8.23148 7.5225 8.07875 7.85943C7.90934 8.23301 7.91304 8.74764 8.08773 9.10489C8.39584 9.7352 9.2457 10.3171 10.1836 10.5398C10.775 10.6804 11.8124 10.6673 12.4033 10.5119C13.2915 10.2784 14.081 9.73355 14.3955 9.13707C14.5684 8.80935 14.5769 8.17376 14.413 7.83383Z" stroke="white" stroke-width="0.3"/>
<path d="M3.11465 13.0042C4.63022 14.451 6.62689 15.376 9.21475 15.8304C9.71763 15.9187 10.7603 15.9304 19.7991 15.9492L29.8256 15.9701V19.0805V22.191H29.209H28.5925V20.553V18.9151L28.4221 18.7327C28.1852 18.479 27.8371 18.4745 27.5897 18.7219L27.4181 18.8936V20.5423V22.191H26.1849H24.9518V21.2469V20.3029L24.7802 20.1312C24.6533 20.0043 24.5527 19.9596 24.3946 19.9596C23.8693 19.9596 23.7774 20.1603 23.7774 21.3072V22.191H22.5736H21.3699V21.4056C21.3699 20.4645 21.3419 20.3 21.1491 20.1072C20.8676 19.8256 20.3309 19.9485 20.1999 20.3245C20.1652 20.4241 20.1367 20.8848 20.1367 21.3483V22.191H18.933H17.7292V20.6387C17.7292 19.7849 17.7044 19.0212 17.6741 18.9414C17.5159 18.5253 17.0554 18.4195 16.7172 18.7216L16.5254 18.8928L16.5073 20.5419L16.4893 22.191H15.3476H14.206V21.3483C14.206 20.8848 14.1776 20.4241 14.1429 20.3245C14.0118 19.9485 13.4751 19.8256 13.1936 20.1072C13.0008 20.3 12.9729 20.4645 12.9729 21.4056V22.191H11.7691H10.5653V21.3072C10.5653 20.3736 10.5145 20.1483 10.2749 20.0201C10.0908 19.9215 9.77131 19.95 9.60636 20.0797C9.39414 20.2467 9.3329 20.5251 9.33255 21.3248C9.33214 22.1206 9.3844 22.0728 8.67541 21.9255C6.41978 21.457 4.40062 20.3156 3.3022 18.8881C2.96902 18.4552 2.56867 17.6964 2.39574 17.1704C2.26532 16.7738 2.25986 16.6758 2.24013 14.3859L2.21969 12.0125L2.45035 12.3013C2.57724 12.4602 2.87613 12.7764 3.11465 13.0042Z" stroke="white" stroke-width="0.3"/>
<path fill-rule="evenodd" clip-rule="evenodd" d="M9.83132 1.03243C9.09538 1.12397 8.32391 1.26473 7.7761 1.40748C4.67414 2.21582 2.22838 4.11683 1.3457 6.40569C0.983688 7.34451 0.988209 7.26442 1.00653 12.3884L1.02327 17.0529L1.19162 17.552C1.67506 18.985 2.67454 20.2842 4.04948 21.2669C5.17221 22.0693 6.8327 22.7713 8.36431 23.0911C9.83895 23.3989 9.67183 23.3947 20.5379 23.3947H30.6573L30.8287 23.2029L31 23.0112V19.0858C31 15.2201 30.9982 15.158 30.8799 15.0076C30.8138 14.9237 30.6619 14.8278 30.5423 14.7945C30.4021 14.7556 28.7534 14.734 25.906 14.7338L21.4873 14.7335V11.3941C21.4873 8.68299 21.4706 7.95661 21.3985 7.53324C20.8408 4.25747 17.3977 1.63678 12.9164 1.077C12.3079 1.00095 10.3155 0.972181 9.83132 1.03243ZM16.5254 3.3766C15.1827 2.7116 13.8584 2.36086 12.1801 2.22586C9.03947 1.97325 5.84926 2.96345 3.93503 4.78507C0.930018 7.64475 1.92045 11.6595 6.12137 13.6468C7.68932 14.3886 9.33754 14.7405 11.2389 14.7395C13.2925 14.7383 14.9225 14.3756 16.5699 13.5532C18.3849 12.647 19.7114 11.2043 20.135 9.67548C20.8032 7.26424 19.3878 4.79429 16.5254 3.3766ZM9.21475 15.8304C6.62689 15.376 4.63022 14.451 3.11465 13.0042C2.87613 12.7764 2.57724 12.4602 2.45035 12.3013L2.21969 12.0125L2.24013 14.3859C2.25986 16.6758 2.26532 16.7738 2.39574 17.1704C2.56867 17.6964 2.96902 18.4552 3.3022 18.8881C4.40062 20.3156 6.41978 21.457 8.67541 21.9255C9.3844 22.0728 9.33214 22.1206 9.33255 21.3248C9.3329 20.5251 9.39414 20.2467 9.60636 20.0797C9.77131 19.95 10.0908 19.9215 10.2749 20.0201C10.5145 20.1483 10.5653 20.3736 10.5653 21.3072V22.191H11.7691H12.9729V21.4056C12.9729 20.4645 13.0008 20.3 13.1936 20.1072C13.4751 19.8256 14.0118 19.9485 14.1429 20.3245C14.1776 20.4241 14.206 20.8848 14.206 21.3483V22.191H15.3476H16.4893L16.5073 20.5419L16.5254 18.8928L16.7172 18.7216C17.0554 18.4195 17.5159 18.5253 17.6741 18.9414C17.7044 19.0212 17.7292 19.7849 17.7292 20.6387V22.191H18.933H20.1367V21.3483C20.1367 20.8848 20.1652 20.4241 20.1999 20.3245C20.3309 19.9485 20.8676 19.8256 21.1491 20.1072C21.3419 20.3 21.3699 20.4645 21.3699 21.4056V22.191H22.5736H23.7774V21.3072C23.7774 20.1603 23.8693 19.9596 24.3946 19.9596C24.5527 19.9596 24.6533 20.0043 24.7802 20.1312L24.9518 20.3029V21.2469V22.191H26.1849H27.4181V20.5423V18.8936L27.5897 18.7219C27.8371 18.4745 28.1852 18.479 28.4221 18.7327L28.5925 18.9151V20.553V22.191H29.209H29.8256V19.0805V15.9701L19.7991 15.9492C10.7603 15.9304 9.71763 15.9187 9.21475 15.8304ZM20.3129 14.7335V13.3829C20.3129 12.6401 20.3063 12.0348 20.2982 12.0378C20.2902 12.0408 19.94 12.3921 19.5202 12.8185C18.7309 13.6201 18.1754 14.0454 17.3475 14.4822L16.8778 14.7301L18.5953 14.7318L20.3129 14.7335Z" stroke="white" stroke-width="0.3"/>
<path d="M20.3129 13.3829V14.7335L18.5953 14.7318L16.8778 14.7301L17.3475 14.4822C18.1754 14.0454 18.7309 13.6201 19.5202 12.8185C19.94 12.3921 20.2902 12.0408 20.2982 12.0378C20.3063 12.0348 20.3129 12.6401 20.3129 13.3829Z" stroke="white" stroke-width="0.3"/>
</svg>
